# xmcd CD database file
#
# Track frame offsets:
#	150
#	14206
#	31720
#	48660
#	67827
#
# Disc length: 1061 seconds
#
# Revision: 0
# Processed by: cddbd v1.5.2PL0 Copyright (c) Steve Scherf et al.
# Submitted via: CDex 1.83
#
DISCID=3b042305
DTITLE=divers -  Jazz a l'ecran Paris 1955-1961
DYEAR=2018
DGENRE=Jazz
TTITLE0=Sidney Bechet - Trottoirs de Paris
TTITLE1=Henri Crolla, Hubert Rostaing - Paris B.B.
TTITLE2=Martial Solal - The Hanghover
TTITLE3=Barney Wilen - Blues de l'antenne
TTITLE4=George Arvanitas - Brigitte Strip Blues
EXTD=YEAR: 2018
EXTT0=
EXTT1=
EXTT2=
EXTT3=
EXTT4=
PLAYORDER=
